<?xml version="1.0" encoding="UTF-8"?>
<svg id="Layer_1" data-name="Layer 1" xmlns="http://www.w3.org/2000/svg" viewBox="0 0 251 82.52">
  <defs>
    <style>
      .cls-1, .cls-2 {
        fill: #fff;
      }

      .cls-2 {
        stroke: #fff;
        stroke-miterlimit: 10;
        stroke-width: 2px;
      }
    </style>
  </defs>
  <g>
    <path class="cls-2" d="m78.17,8.31v65.9H12.27V8.31h65.9m2.05-2.05H10.22v70h70V6.26h0Z"/>
    <g>
      <rect class="cls-1" x="27.89" y="23.93" width="34.66" height="4.33"/>
      <polygon class="cls-1" points="27.89 36.93 32.22 36.93 32.22 58.59 36.55 58.59 36.55 36.93 36.55 36.93 36.55 32.6 27.89 32.6 27.89 36.93"/>
      <polygon class="cls-1" points="40.89 32.6 40.89 36.93 40.89 36.93 40.89 58.59 45.22 58.59 45.22 36.93 62.55 36.93 62.55 32.6 40.89 32.6"/>
      <polygon class="cls-1" points="53.8 54.26 53.8 41.25 49.55 41.25 49.55 54.26 49.55 55.64 49.55 58.59 62.55 58.59 62.55 54.26 53.8 54.26"/>
    </g>
  </g>
  <g>
    <path class="cls-1" d="m111.9,17.76v3.04h-5v15.74h-3.77v-15.74h-5v-3.04h13.78Z"/>
    <path class="cls-1" d="m128.8,30.22h-10.9c.09,1.08.47,1.92,1.13,2.53.66.61,1.48.91,2.45.91,1.4,0,2.39-.6,2.99-1.8h4.06c-.43,1.43-1.26,2.61-2.47,3.54-1.22.92-2.72,1.39-4.49,1.39-1.43,0-2.72-.32-3.86-.95-1.14-.64-2.03-1.54-2.66-2.7-.64-1.17-.95-2.51-.95-4.04s.31-2.9.94-4.06c.63-1.17,1.51-2.06,2.64-2.69,1.13-.63,2.43-.94,3.9-.94s2.69.31,3.81.92c1.12.61,1.99,1.48,2.61,2.6.62,1.12.93,2.41.93,3.86,0,.54-.04,1.02-.11,1.45Zm-3.79-2.53c-.02-.97-.37-1.74-1.05-2.33-.68-.58-1.52-.87-2.5-.87-.93,0-1.72.28-2.35.85-.64.56-1.03,1.35-1.17,2.35h7.08Z"/>
    <path class="cls-1" d="m132.02,25.04c.63-1.16,1.5-2.05,2.61-2.69,1.11-.64,2.39-.96,3.82-.96,1.85,0,3.38.46,4.59,1.39s2.02,2.22,2.43,3.89h-4.06c-.22-.65-.58-1.15-1.09-1.52-.51-.37-1.14-.55-1.9-.55-1.08,0-1.93.39-2.56,1.17s-.94,1.89-.94,3.32.31,2.52.94,3.3,1.48,1.17,2.56,1.17c1.52,0,2.52-.68,2.99-2.04h4.06c-.41,1.61-1.23,2.9-2.45,3.85-1.22.95-2.74,1.43-4.57,1.43-1.43,0-2.71-.32-3.82-.95-1.11-.64-1.98-1.53-2.61-2.69-.63-1.16-.94-2.51-.94-4.05s.31-2.89.94-4.05Z"/>
    <path class="cls-1" d="m160.06,22.16c.88.49,1.56,1.22,2.06,2.18.49.96.74,2.11.74,3.46v8.74h-3.77v-8.23c0-1.18-.3-2.09-.89-2.73-.59-.64-1.4-.95-2.42-.95s-1.86.32-2.46.95c-.6.64-.9,1.55-.9,2.73v8.23h-3.77v-19.91h3.77v6.86c.48-.65,1.13-1.15,1.94-1.52.81-.37,1.7-.55,2.69-.55,1.13,0,2.13.25,3.01.74Z"/>
    <path class="cls-1" d="m171.23,24.73v7.21c0,.5.12.87.36,1.09.24.22.65.34,1.22.34h1.75v3.17h-2.37c-3.17,0-4.76-1.54-4.76-4.63v-7.18h-1.78v-3.09h1.78v-3.69h3.79v3.69h3.34v3.09h-3.34Z"/>
    <path class="cls-1" d="m183.35,22.09c.78-.45,1.67-.67,2.68-.67v3.95h-1c-1.18,0-2.08.28-2.68.83-.6.56-.9,1.52-.9,2.91v7.43h-3.77v-14.91h3.77v2.31c.48-.79,1.12-1.41,1.9-1.86Z"/>
    <path class="cls-1" d="m191.7,35.83c-1.15-.64-2.05-1.54-2.7-2.7-.65-1.17-.98-2.51-.98-4.04s.34-2.87,1.01-4.04c.67-1.17,1.59-2.07,2.76-2.7,1.17-.64,2.47-.96,3.9-.96s2.74.32,3.9.96c1.17.64,2.09,1.54,2.76,2.7.67,1.17,1.01,2.51,1.01,4.04s-.35,2.87-1.04,4.04c-.69,1.17-1.62,2.07-2.8,2.7s-2.49.95-3.94.95-2.73-.32-3.87-.95Zm5.8-2.83c.6-.33,1.08-.83,1.44-1.49s.54-1.47.54-2.42c0-1.42-.37-2.51-1.12-3.27s-1.65-1.14-2.73-1.14-1.98.38-2.7,1.14-1.09,1.85-1.09,3.27.35,2.51,1.06,3.27c.71.76,1.6,1.14,2.68,1.14.68,0,1.32-.17,1.92-.5Z"/>
    <path class="cls-1" d="m219.09,23.1c1.09,1.12,1.64,2.69,1.64,4.69v8.74h-3.77v-8.23c0-1.18-.3-2.09-.89-2.73-.59-.64-1.4-.95-2.42-.95s-1.86.32-2.46.95c-.6.64-.9,1.55-.9,2.73v8.23h-3.77v-14.91h3.77v1.86c.5-.65,1.14-1.15,1.92-1.52.78-.37,1.64-.55,2.57-.55,1.78,0,3.21.56,4.3,1.68Z"/>
    <path class="cls-1" d="m224.97,19.23c-.44-.42-.66-.95-.66-1.57s.22-1.15.66-1.57c.44-.42.99-.63,1.65-.63s1.21.21,1.65.63.66.95.66,1.57-.22,1.15-.66,1.57-.99.63-1.65.63-1.22-.21-1.65-.63Zm3.51,2.41v14.91h-3.77v-14.91h3.77Z"/>
    <path class="cls-1" d="m232.57,25.04c.63-1.16,1.5-2.05,2.61-2.69,1.11-.64,2.39-.96,3.82-.96,1.85,0,3.38.46,4.59,1.39s2.02,2.22,2.43,3.89h-4.06c-.22-.65-.58-1.15-1.09-1.52-.51-.37-1.14-.55-1.9-.55-1.08,0-1.93.39-2.56,1.17s-.94,1.89-.94,3.32.31,2.52.94,3.3,1.48,1.17,2.56,1.17c1.52,0,2.52-.68,2.99-2.04h4.06c-.41,1.61-1.23,2.9-2.45,3.85-1.22.95-2.74,1.43-4.57,1.43-1.43,0-2.71-.32-3.82-.95-1.11-.64-1.98-1.53-2.61-2.69-.63-1.16-.94-2.51-.94-4.05s.31-2.89.94-4.05Z"/>
    <path class="cls-1" d="m102.89,65.84h6.19v2.99h-9.96v-18.78h3.77v15.79Z"/>
    <path class="cls-1" d="m111.81,57.31c.6-1.17,1.42-2.06,2.45-2.69,1.03-.63,2.18-.94,3.46-.94,1.11,0,2.09.22,2.92.67.83.45,1.5,1.01,2,1.69v-2.13h3.79v14.91h-3.79v-2.18c-.48.7-1.15,1.28-2,1.74-.85.46-1.83.69-2.95.69-1.26,0-2.4-.32-3.43-.97-1.03-.65-1.85-1.56-2.45-2.73-.6-1.17-.9-2.52-.9-4.05s.3-2.84.9-4.01Zm10.29,1.71c-.36-.65-.84-1.16-1.45-1.51-.61-.35-1.26-.52-1.96-.52s-1.35.17-1.94.51-1.07.84-1.44,1.49c-.37.65-.55,1.43-.55,2.33s.18,1.68.55,2.35c.37.67.85,1.19,1.45,1.55.6.36,1.24.54,1.92.54s1.35-.17,1.96-.52c.61-.35,1.09-.85,1.45-1.51s.54-1.44.54-2.35-.18-1.7-.54-2.35Z"/>
    <path class="cls-1" d="m136.29,54.35c.85-.45,1.83-.67,2.92-.67,1.27,0,2.43.31,3.46.94,1.03.63,1.85,1.52,2.45,2.68.6,1.16.9,2.5.9,4.02s-.3,2.87-.9,4.05c-.6,1.17-1.42,2.08-2.45,2.73-1.03.65-2.18.97-3.46.97-1.11,0-2.09-.22-2.92-.66-.83-.44-1.5-1.01-2-1.71v2.13h-3.77v-19.91h3.77v7.18c.48-.72,1.15-1.3,2-1.75Zm5.33,4.64c-.37-.65-.85-1.15-1.45-1.49-.6-.34-1.25-.51-1.95-.51s-1.32.17-1.92.52c-.6.35-1.09.86-1.45,1.52s-.55,1.44-.55,2.34.18,1.68.55,2.34c.37.66.85,1.17,1.45,1.52.6.35,1.24.52,1.92.52s1.35-.18,1.95-.54c.6-.36,1.08-.87,1.45-1.53.37-.66.55-1.45.55-2.37s-.18-1.67-.55-2.33Z"/>
    <path class="cls-1" d="m151.58,68.41c-.97-.44-1.74-1.04-2.3-1.79s-.87-1.59-.93-2.5h3.79c.07.57.35,1.05.85,1.43.49.38,1.11.56,1.84.56s1.28-.14,1.68-.43c.4-.29.61-.65.61-1.1,0-.48-.25-.85-.74-1.09-.49-.24-1.28-.51-2.35-.79-1.11-.27-2.02-.55-2.73-.83s-1.32-.73-1.83-1.32c-.51-.59-.77-1.39-.77-2.39,0-.83.24-1.58.71-2.26.47-.68,1.16-1.22,2.04-1.61s1.93-.59,3.13-.59c1.78,0,3.19.44,4.25,1.33s1.64,2.09,1.75,3.59h-3.61c-.05-.59-.3-1.06-.74-1.41-.44-.35-1.03-.52-1.76-.52-.68,0-1.21.13-1.57.38-.37.25-.55.6-.55,1.05,0,.5.25.88.75,1.14.5.26,1.28.52,2.34.79,1.08.27,1.96.55,2.66.83.7.29,1.3.73,1.82,1.33.51.6.78,1.4.79,2.38,0,.86-.24,1.63-.71,2.31-.48.68-1.16,1.22-2.04,1.6s-1.92.58-3.11.58-2.31-.22-3.28-.66Z"/>
  </g>
</svg>