<svg xmlns="http://www.w3.org/2000/svg" xmlns:xlink="http://www.w3.org/1999/xlink" width="512" height="512" viewBox="0 0 512 512"><defs><clipPath id="a"><rect width="512" height="512" transform="translate(4011 540)" fill="#fff" stroke="#707070" stroke-width="1"/></clipPath></defs><g transform="translate(-4011 -540)" clip-path="url(#a)"><g transform="translate(4078.156 541.592)"><path d="M322.431,74.6V40.628A25.627,25.627,0,0,0,296.8,15H75.868A25.627,25.627,0,0,0,50.241,40.628V74.6m272.19,0H50.241m272.19,0v65.564M50.241,74.6v65.564m272.19,228.48v99.538a25.628,25.628,0,0,1-25.629,25.63H75.87a25.628,25.628,0,0,1-25.63-25.63V368.649M250.907,223.116,282.2,254.408,250.907,285.7M121.765,223.116,90.473,254.408,121.765,285.7m78.514-85.9L172.393,309.014" transform="translate(2.508 0)" fill="none" stroke="#0a1233" stroke-linecap="round" stroke-linejoin="round" stroke-miterlimit="10" stroke-width="30"/><path d="M163.512,425.9h50.664M15,131.851H362.689v228.48H15Z" transform="translate(0 8.317)" fill="none" stroke="#0a1233" stroke-linecap="round" stroke-linejoin="round" stroke-miterlimit="10" stroke-width="30"/></g></g></svg>