<svg xmlns="http://www.w3.org/2000/svg" xmlns:xlink="http://www.w3.org/1999/xlink" width="512" height="512" viewBox="0 0 512 512"><defs><clipPath id="a"><rect width="512" height="512" transform="translate(3330 540)" fill="#fff" stroke="#707070" stroke-width="1"/></clipPath><clipPath id="b"><path d="M0-682.665H512v512H0Z" transform="translate(0 682.665)" fill="#404454"/></clipPath></defs><g transform="translate(-3330 -540)" clip-path="url(#a)"><g transform="translate(3330 539.998)"><g transform="translate(0 0.002)" clip-path="url(#b)"><path d="M0,0V314" transform="translate(46 36)" fill="none" stroke="#0a1233" stroke-linecap="round" stroke-linejoin="round" stroke-miterlimit="22.926" stroke-width="31"/><path d="M0-9.667l31-29,31,29" transform="translate(15 56.667)" fill="none" stroke="#0a1233" stroke-linecap="round" stroke-linejoin="round" stroke-miterlimit="22.926" stroke-width="31"/><path d="M0,0,31,29,62,0" transform="translate(15 340)" fill="none" stroke="#0a1233" stroke-linecap="round" stroke-linejoin="round" stroke-miterlimit="22.926" stroke-width="31"/></g><path d="M-39.079,0,2.406,66.173l75.753,19-50.114,59.9L33.378,223l-72.457-29.15L-111.536,223l5.333-77.918-50.114-59.9,75.753-19Z" transform="translate(353.08 80.001)" fill="none" stroke="#0a1233" stroke-linecap="round" stroke-linejoin="round" stroke-miterlimit="22.926" stroke-width="31"/><g transform="translate(0 0.002)" clip-path="url(#b)"><path d="M174.666-308.665h366v-354h-366Z" transform="translate(-43.666 677.665)" fill="none" stroke="#0a1233" stroke-linecap="round" stroke-linejoin="round" stroke-miterlimit="22.926" stroke-width="31"/><path d="M-114.332,0h-343" transform="translate(593.332 466)" fill="none" stroke="#0a1233" stroke-linecap="round" stroke-linejoin="round" stroke-miterlimit="22.926" stroke-width="31"/><path d="M0,0,29,31,0,62" transform="translate(468 435)" fill="none" stroke="#0a1233" stroke-linecap="round" stroke-linejoin="round" stroke-miterlimit="22.926" stroke-width="31"/><path d="M-9.667,0l-29,31,29,31" transform="translate(165.167 435)" fill="none" stroke="#0a1233" stroke-linecap="round" stroke-linejoin="round" stroke-miterlimit="22.926" stroke-width="31"/></g></g></g></svg>