<svg xmlns="http://www.w3.org/2000/svg" xmlns:xlink="http://www.w3.org/1999/xlink" width="512" height="512" viewBox="0 0 512 512"><defs><clipPath id="a"><rect width="512" height="512" transform="translate(6001 540)" fill="#fff" stroke="#707070" stroke-width="1"/></clipPath></defs><g transform="translate(-6001 -540)" clip-path="url(#a)"><g transform="translate(6001 540)"><path d="M195.616,376.2l-15.925-85.848,76.761-135.5,76.76,135.5L317.288,376.2m-121.672,0H317.288m-121.672,0V497H317.288V376.2m-121.672,60H317.288M256.452,168.988V286.36" fill="none" stroke="#0a1233" stroke-linecap="round" stroke-linejoin="round" stroke-miterlimit="10" stroke-width="30"/><path d="M256.452,305.142a12.391,12.391,0,1,0-12.391-12.391A12.391,12.391,0,0,0,256.452,305.142Z" fill="none" stroke="#0a1233" stroke-linecap="round" stroke-linejoin="round" stroke-miterlimit="10" stroke-width="30"/><path d="M221.851,44.537H75.859m359.186,0H285.989m-60.754,2.427C131.6,61.8,60.007,142.9,60.007,240.714v26.853m392.355-1V240.714c0-95.846-68.735-175.639-159.6-192.774" fill="none" stroke="#0a1233" stroke-linecap="round" stroke-linejoin="round" stroke-miterlimit="10" stroke-width="30"/><path d="M467.662,73.875a29.338,29.338,0,1,0-29.338-29.338A29.338,29.338,0,0,0,467.662,73.875Z" fill="none" stroke="#0a1233" stroke-linecap="round" stroke-linejoin="round" stroke-miterlimit="10" stroke-width="30"/><path d="M285.989,74.074H226.915V15h59.074Z" fill="none" stroke="#0a1233" stroke-linecap="round" stroke-linejoin="round" stroke-miterlimit="10" stroke-width="30"/><path d="M44.338,73.875A29.338,29.338,0,1,0,15,44.537,29.338,29.338,0,0,0,44.338,73.875Z" fill="none" stroke="#0a1233" stroke-linecap="round" stroke-linejoin="round" stroke-miterlimit="10" stroke-width="30"/><path d="M481.9,329.032H422.825V269.958H481.9Z" fill="none" stroke="#0a1233" stroke-linecap="round" stroke-linejoin="round" stroke-miterlimit="10" stroke-width="30"/><path d="M89.545,329.032H30.471V269.958H89.545Z" fill="none" stroke="#0a1233" stroke-linecap="round" stroke-linejoin="round" stroke-miterlimit="10" stroke-width="30"/></g></g></svg>