<svg xmlns="http://www.w3.org/2000/svg" xmlns:xlink="http://www.w3.org/1999/xlink" width="512" height="512" viewBox="0 0 512 512"><defs><clipPath id="a"><rect width="512" height="512" transform="translate(2664 540)" fill="none" stroke="#1e1e1e" stroke-width="1"/></clipPath></defs><g transform="translate(-2664 -540)" clip-path="url(#a)"><path d="M368.922,40.224C326.654,5.87,271.406-7.352,217.335,3.948c-67.571,14.122-122.7,69.5-137.179,137.8-12.209,57.593,2.836,115.413,41.278,158.636C140.5,321.822,151,348.64,151,375.975V405.98a45.078,45.078,0,0,0,30,42.428v18.584A45.055,45.055,0,0,0,226,512h60a45.055,45.055,0,0,0,45-45.008V448.409a45.078,45.078,0,0,0,30-42.428V375.975c0-26.984,10.812-54.183,30.442-76.583A180.514,180.514,0,0,0,368.922,40.224ZM301,466.992a15.018,15.018,0,0,1-15,15H226a15.018,15.018,0,0,1-15-15v-16h90Zm30-61.012a15.019,15.019,0,0,1-15,15H196a15.019,15.019,0,0,1-15-15v-15H331ZM256,254.63a95.72,95.72,0,0,0,30-4.836v111.18H226V249.794A95.72,95.72,0,0,0,256,254.63Zm-25.075-34.992L256,169.478l25.075,50.159A65.85,65.85,0,0,1,230.925,219.638Zm137.956,59.977c-20.857,23.8-33.713,52.227-37.027,81.358H316V225.994a15.238,15.238,0,0,0-1.441-6.422c-.052-.11-.089-.225-.143-.333l-45-90.017a15,15,0,0,0-26.835,0l-45,90.017A15.5,15.5,0,0,0,196,225.982V360.973H180.182c-3.216-29.332-15.834-57.481-36.333-80.53C111.812,244.42,99.293,196.137,109.5,147.972c12.052-56.85,57.853-102.926,113.967-114.653C268.659,23.875,314.777,34.881,350,63.511a150.505,150.505,0,0,1,18.879,216.1ZM45,180.94H15a15,15,0,0,0,0,30.005H45a15,15,0,0,0,0-30.005Zm6.213-75.014L30,84.709A15,15,0,0,0,8.787,105.926L30,127.143a15,15,0,0,0,21.213-21.217Zm0,158.816a15,15,0,0,0-21.213,0L8.787,285.958A15,15,0,0,0,30,307.175l21.213-21.217A15.005,15.005,0,0,0,51.213,264.742ZM497,180.94H467a15,15,0,0,0,0,30.005h30a15,15,0,0,0,0-30.005Zm6.213-96.231a15,15,0,0,0-21.213,0l-21.213,21.217A15,15,0,0,0,482,127.143l21.213-21.217A15,15,0,0,0,503.213,84.709Zm0,201.249L482,264.742a15,15,0,1,0-21.213,21.216L482,307.175a15,15,0,0,0,21.213-21.217Z" transform="translate(2664 540)" fill="#0a1233"/></g></svg>