<svg xmlns="http://www.w3.org/2000/svg" xmlns:xlink="http://www.w3.org/1999/xlink" width="512" height="512" viewBox="0 0 512 512"><defs><clipPath id="a"><rect width="512" height="512" transform="translate(5346 540)" fill="#fff" stroke="#707070" stroke-width="1"/></clipPath></defs><g transform="translate(-5346 -540)" clip-path="url(#a)"><path d="M442.251,212.09,77.624,8.07A50.3,50.3,0,0,0,0,50.329V461.67a50.3,50.3,0,0,0,77.625,42.26L442.252,299.908a50.314,50.314,0,0,0,0-87.818ZM319.676,181.943l-50.339,50.339L91.108,54.051ZM33.544,467.322V44.676L245.621,256Zm57.564-9.374L269.339,279.717l50.339,50.339ZM425.873,270.636l-75.779,42.4L293.056,256l57.037-57.037,75.778,42.4a16.771,16.771,0,0,1,0,29.272Z" transform="translate(5373 540)" fill="#0a1233"/></g></svg>