<svg xmlns="http://www.w3.org/2000/svg" xmlns:xlink="http://www.w3.org/1999/xlink" width="512" height="512" viewBox="0 0 512 512"><defs><clipPath id="a"><rect width="512" height="512" transform="translate(4674 540)" fill="#fff" stroke="#0a1233" stroke-width="1"/></clipPath></defs><g transform="translate(-4674 -540)" clip-path="url(#a)"><g transform="translate(4674 576.442)"><path d="M493.3,0H18.695A18.717,18.717,0,0,0,0,18.695V420.422a18.717,18.717,0,0,0,18.695,18.7H493.3a18.717,18.717,0,0,0,18.7-18.7V18.695A18.717,18.717,0,0,0,493.3,0ZM482,30V52.4l-175.375.426a18.475,18.475,0,0,0-12.586,4.977L269.367,80.832H30V30ZM30,409.117V110.828H273.9a18.436,18.436,0,0,0,12.625-4.976l24.684-23.036L482,82.4v326.72Z" fill="#0a1233"/><path d="M97.188,58.707a12.461,12.461,0,0,0,.359,1.43c.14.457.312.93.492,1.379s.4.9.629,1.328.48.851.75,1.261a13.093,13.093,0,0,0,.879,1.18c.312.38.64.75.992,1.1a12.5,12.5,0,0,0,1.09.988,14.294,14.294,0,0,0,1.187.871c.4.27.832.527,1.262.758a13.44,13.44,0,0,0,1.328.621,12.934,12.934,0,0,0,1.383.5c.469.14.95.262,1.418.36a13.581,13.581,0,0,0,1.461.218,15.144,15.144,0,0,0,4.4-.219c.48-.1.96-.218,1.43-.359a13.51,13.51,0,0,0,1.378-.5A12.879,12.879,0,0,0,118.957,69c.43-.23.852-.488,1.262-.758a13.915,13.915,0,0,0,1.18-.871,12.59,12.59,0,0,0,1.1-.988,15.946,15.946,0,0,0,1.871-2.281c.262-.41.52-.833.75-1.262a13.32,13.32,0,0,0,.621-1.328c.188-.45.36-.922.5-1.38s.258-.952.36-1.429a14.344,14.344,0,0,0,.289-2.93,14.5,14.5,0,0,0-.07-1.472,14.106,14.106,0,0,0-.22-1.461q-.151-.716-.359-1.418a13.925,13.925,0,0,0-.5-1.38,12.4,12.4,0,0,0-.62-1.331c-.231-.43-.49-.86-.75-1.258-.282-.41-.571-.812-.88-1.191a12.825,12.825,0,0,0-.992-1.09,12,12,0,0,0-1.1-.989,12.948,12.948,0,0,0-1.18-.882q-.615-.405-1.261-.75c-.43-.23-.879-.438-1.332-.63s-.912-.346-1.379-.487a12.13,12.13,0,0,0-1.43-.364,14.881,14.881,0,0,0-5.86,0,12.549,12.549,0,0,0-1.417.364,14.5,14.5,0,0,0-1.383.488c-.449.191-.9.4-1.328.629s-.86.48-1.262.75a13.975,13.975,0,0,0-1.187.882,12.047,12.047,0,0,0-1.09.989,12.825,12.825,0,0,0-.992,1.09,14.279,14.279,0,0,0-.879,1.191,14.1,14.1,0,0,0-.75,1.258,14.869,14.869,0,0,0-1.121,2.71,11.748,11.748,0,0,0-.36,1.419,14.085,14.085,0,0,0-.218,4.41A14.68,14.68,0,0,0,97.188,58.707ZM54.379,67.375a14.114,14.114,0,0,0,1.191.871,14.673,14.673,0,0,0,1.262.762,14.385,14.385,0,0,0,1.328.617,13.123,13.123,0,0,0,1.38.5c.472.14.94.262,1.42.36a14.561,14.561,0,0,0,1.462.222,15.335,15.335,0,0,0,2.95,0,13.933,13.933,0,0,0,1.448-.223c.48-.1.961-.218,1.43-.359a13.883,13.883,0,0,0,1.379-.5,14.08,14.08,0,0,0,1.332-.617c.43-.23.852-.492,1.262-.762a13.1,13.1,0,0,0,1.18-.871,14.136,14.136,0,0,0,2.089-2.09,12.4,12.4,0,0,0,.867-1.18c.27-.41.532-.828.762-1.257a14.231,14.231,0,0,0,.621-1.332,14.6,14.6,0,0,0,.5-1.38c.137-.468.258-.949.36-1.429a14.5,14.5,0,0,0,.29-2.93,14.222,14.222,0,0,0-.072-1.472c-.05-.489-.12-.977-.218-1.457s-.223-.95-.36-1.422a15.432,15.432,0,0,0-1.883-3.97c-.27-.41-.558-.808-.867-1.19a12.825,12.825,0,0,0-.992-1.09c-.348-.348-.719-.68-1.1-1s-.774-.6-1.18-.867a13.949,13.949,0,0,0-1.261-.75q-.652-.346-1.332-.633c-.45-.18-.918-.348-1.379-.489a12.306,12.306,0,0,0-1.43-.359,14.463,14.463,0,0,0-1.449-.223,14.883,14.883,0,0,0-2.95,0,14.242,14.242,0,0,0-1.46.223,12.135,12.135,0,0,0-1.422.36c-.469.14-.93.308-1.379.488s-.9.4-1.328.633a12.939,12.939,0,0,0-1.262.75c-.41.27-.808.57-1.191.867-.379.32-.75.652-1.09,1a12.78,12.78,0,0,0-.988,1.09c-.309.382-.61.78-.88,1.191a14.078,14.078,0,0,0-.75,1.262c-.23.43-.44.867-.632,1.328s-.348.91-.488,1.379a12.084,12.084,0,0,0-.36,1.422,13.983,13.983,0,0,0-.218,1.457,14.238,14.238,0,0,0-.082,1.472,15.11,15.11,0,0,0,4.4,10.61A13.105,13.105,0,0,0,54.379,67.375Zm91.809-8.668a11.869,11.869,0,0,0,.359,1.43c.14.457.308.93.488,1.379s.4.9.63,1.328.48.851.75,1.261a13.123,13.123,0,0,0,.882,1.18c.308.38.64.75.988,1.1a13.105,13.105,0,0,0,1.09.988c.383.309.781.6,1.191.871s.829.527,1.258.758a13.611,13.611,0,0,0,1.332.621,13.123,13.123,0,0,0,1.38.5c.472.14.948.262,1.417.36a13.581,13.581,0,0,0,1.461.218,15.565,15.565,0,0,0,2.949,0,13.243,13.243,0,0,0,1.461-.219c.473-.1.95-.218,1.422-.359A16.377,16.377,0,0,0,167.953,69a14.239,14.239,0,0,0,1.262-.758c.41-.27.808-.562,1.191-.871a12.949,12.949,0,0,0,1.09-.988c.348-.352.68-.723.988-1.1a13.907,13.907,0,0,0,.88-1.18c.261-.41.523-.832.75-1.261a13.539,13.539,0,0,0,.62-1.328,13.922,13.922,0,0,0,.5-1.38c.141-.472.258-.952.36-1.429a14.345,14.345,0,0,0,.29-2.93,14.509,14.509,0,0,0-.071-1.472,13.1,13.1,0,0,0-.22-1.461c-.1-.477-.218-.95-.359-1.418a13.286,13.286,0,0,0-.5-1.38,13.588,13.588,0,0,0-.62-1.331c-.227-.43-.489-.86-.75-1.258-.278-.41-.567-.812-.88-1.191a12.78,12.78,0,0,0-.988-1.09,12.308,12.308,0,0,0-1.09-.989,14.45,14.45,0,0,0-2.453-1.632c-.43-.23-.879-.438-1.328-.63s-.91-.35-1.379-.487-.95-.27-1.422-.364a14.88,14.88,0,0,0-5.871,0,16.1,16.1,0,0,0-2.8.852c-.453.191-.9.4-1.332.629a14.765,14.765,0,0,0-2.449,1.632,12.61,12.61,0,0,0-1.09.989,12.3,12.3,0,0,0-.988,1.09,14.683,14.683,0,0,0-1.633,2.449c-.226.43-.437.883-.629,1.332s-.351.91-.488,1.379a11.508,11.508,0,0,0-.36,1.418,14.37,14.37,0,0,0-.222,1.46,14.55,14.55,0,0,0-.078,1.473,14.314,14.314,0,0,0,.078,1.477,13.861,13.861,0,0,0,.222,1.453Zm47.285,129.559a15,15,0,0,0-21.2-.621l-63.227,59.613a15.691,15.691,0,0,0,.012,22.828l63.215,59.605a15,15,0,1,0,20.578-21.828l-52.176-49.2,52.176-49.195A15,15,0,0,0,193.473,188.266Zm94.769-3.411a15,15,0,0,0-19.8,7.6L214.9,312.676a15,15,0,1,0,27.406,12.2L295.844,204.66A15,15,0,0,0,288.242,184.855Zm51.488,2.79a15,15,0,1,0-20.578,21.824l52.176,49.2-52.176,49.2a15,15,0,1,0,20.578,21.828l63.215-59.605a15.687,15.687,0,0,0,0-22.836Z" fill="#0a1233"/></g></g></svg>